<?xml version="1.0" encoding="UTF-8"?>
<!DOCTYPE svg PUBLIC "-//W3C//DTD SVG 1.1//EN" "http://www.w3.org/Graphics/SVG/1.1/DTD/svg11.dtd">
<svg xmlns="http://www.w3.org/2000/svg" version="1.1" width="2048px" height="2048px" style="shape-rendering:geometricPrecision; text-rendering:geometricPrecision; image-rendering:optimizeQuality; fill-rule:evenodd; clip-rule:evenodd" xmlns:xlink="http://www.w3.org/1999/xlink">
<g><path style="opacity:1" fill="#d2d3d2" d="M 1791.5,511.5 C 1748.83,511.5 1706.17,511.5 1663.5,511.5C 1620.83,511.5 1578.17,511.5 1535.5,511.5C 1535.5,426.167 1535.5,340.833 1535.5,255.5C 1578.17,255.5 1620.83,255.5 1663.5,255.5C 1663.5,298.167 1663.5,340.833 1663.5,383.5C 1706.17,383.5 1748.83,383.5 1791.5,383.5C 1791.5,426.167 1791.5,468.833 1791.5,511.5 Z"/></g>
<g><path style="opacity:1" fill="#d2d3d2" d="M 1535.5,511.5 C 1535.5,554.167 1535.5,596.833 1535.5,639.5C 1492.83,639.5 1450.17,639.5 1407.5,639.5C 1407.5,596.833 1407.5,554.167 1407.5,511.5C 1450.17,511.5 1492.83,511.5 1535.5,511.5 Z"/></g>
<g><path style="opacity:1" fill="#959695" d="M 1535.5,511.5 C 1578.17,511.5 1620.83,511.5 1663.5,511.5C 1663.5,596.833 1663.5,682.167 1663.5,767.5C 1620.83,767.5 1578.17,767.5 1535.5,767.5C 1535.5,724.833 1535.5,682.167 1535.5,639.5C 1535.5,596.833 1535.5,554.167 1535.5,511.5 Z"/></g>
<g><path style="opacity:1" fill="#fefffe" d="M 1663.5,511.5 C 1706.17,511.5 1748.83,511.5 1791.5,511.5C 1791.5,554.167 1791.5,596.833 1791.5,639.5C 1791.5,682.167 1791.5,724.833 1791.5,767.5C 1748.83,767.5 1706.17,767.5 1663.5,767.5C 1663.5,682.167 1663.5,596.833 1663.5,511.5 Z"/></g>
<g><path style="opacity:1" fill="#d2d3d2" d="M 1407.5,639.5 C 1407.5,682.167 1407.5,724.833 1407.5,767.5C 1407.5,810.167 1407.5,852.833 1407.5,895.5C 1364.83,895.5 1322.17,895.5 1279.5,895.5C 1279.5,810.167 1279.5,724.833 1279.5,639.5C 1322.17,639.5 1364.83,639.5 1407.5,639.5 Z"/></g>
<g><path style="opacity:1" fill="#fefffe" d="M 1407.5,639.5 C 1450.17,639.5 1492.83,639.5 1535.5,639.5C 1535.5,682.167 1535.5,724.833 1535.5,767.5C 1492.83,767.5 1450.17,767.5 1407.5,767.5C 1407.5,724.833 1407.5,682.167 1407.5,639.5 Z"/></g>
<g><path style="opacity:1" fill="#d2d3d2" d="M 1791.5,639.5 C 1834.17,639.5 1876.83,639.5 1919.5,639.5C 1919.5,682.167 1919.5,724.833 1919.5,767.5C 1876.83,767.5 1834.17,767.5 1791.5,767.5C 1791.5,724.833 1791.5,682.167 1791.5,639.5 Z"/></g>
<g><path style="opacity:1" fill="#959695" d="M 1407.5,767.5 C 1450.17,767.5 1492.83,767.5 1535.5,767.5C 1535.5,810.167 1535.5,852.833 1535.5,895.5C 1535.5,938.167 1535.5,980.833 1535.5,1023.5C 1492.83,1023.5 1450.17,1023.5 1407.5,1023.5C 1407.5,980.833 1407.5,938.167 1407.5,895.5C 1407.5,852.833 1407.5,810.167 1407.5,767.5 Z"/></g>
<g><path style="opacity:1" fill="#bdbebd" d="M 1535.5,767.5 C 1578.17,767.5 1620.83,767.5 1663.5,767.5C 1663.5,810.167 1663.5,852.833 1663.5,895.5C 1620.83,895.5 1578.17,895.5 1535.5,895.5C 1535.5,852.833 1535.5,810.167 1535.5,767.5 Z"/></g>
<g><path style="opacity:1" fill="#d2d3d2" d="M 1663.5,767.5 C 1706.17,767.5 1748.83,767.5 1791.5,767.5C 1791.5,810.167 1791.5,852.833 1791.5,895.5C 1748.83,895.5 1706.17,895.5 1663.5,895.5C 1663.5,852.833 1663.5,810.167 1663.5,767.5 Z"/></g>
<g><path style="opacity:1" fill="#d2d3d2" d="M 1151.5,895.5 C 1151.5,938.167 1151.5,980.833 1151.5,1023.5C 1108.83,1023.5 1066.17,1023.5 1023.5,1023.5C 1023.5,980.833 1023.5,938.167 1023.5,895.5C 1066.17,895.5 1108.83,895.5 1151.5,895.5 Z"/></g>
<g><path style="opacity:1" fill="#fefffe" d="M 1151.5,895.5 C 1194.17,895.5 1236.83,895.5 1279.5,895.5C 1279.5,938.167 1279.5,980.833 1279.5,1023.5C 1236.83,1023.5 1194.17,1023.5 1151.5,1023.5C 1151.5,980.833 1151.5,938.167 1151.5,895.5 Z"/></g>
<g><path style="opacity:1" fill="#bdbebd" d="M 1279.5,895.5 C 1322.17,895.5 1364.83,895.5 1407.5,895.5C 1407.5,938.167 1407.5,980.833 1407.5,1023.5C 1364.83,1023.5 1322.17,1023.5 1279.5,1023.5C 1279.5,980.833 1279.5,938.167 1279.5,895.5 Z"/></g>
<g><path style="opacity:1" fill="#d2d3d2" d="M 1535.5,895.5 C 1578.17,895.5 1620.83,895.5 1663.5,895.5C 1663.5,938.167 1663.5,980.833 1663.5,1023.5C 1620.83,1023.5 1578.17,1023.5 1535.5,1023.5C 1535.5,980.833 1535.5,938.167 1535.5,895.5 Z"/></g>
<g><path style="opacity:1" fill="#d2d3d2" d="M 895.5,1151.5 C 852.833,1151.5 810.167,1151.5 767.5,1151.5C 767.5,1108.83 767.5,1066.17 767.5,1023.5C 810.167,1023.5 852.833,1023.5 895.5,1023.5C 895.5,1066.17 895.5,1108.83 895.5,1151.5 Z"/></g>
<g><path style="opacity:1" fill="#fefffe" d="M 1023.5,1023.5 C 1066.17,1023.5 1108.83,1023.5 1151.5,1023.5C 1151.5,1066.17 1151.5,1108.83 1151.5,1151.5C 1108.83,1151.5 1066.17,1151.5 1023.5,1151.5C 1023.5,1108.83 1023.5,1066.17 1023.5,1023.5 Z"/></g>
<g><path style="opacity:1" fill="#d2d3d2" d="M 1151.5,1023.5 C 1194.17,1023.5 1236.83,1023.5 1279.5,1023.5C 1279.5,1066.17 1279.5,1108.83 1279.5,1151.5C 1236.83,1151.5 1194.17,1151.5 1151.5,1151.5C 1151.5,1108.83 1151.5,1066.17 1151.5,1023.5 Z"/></g>
<g><path style="opacity:1" fill="#959695" d="M 1279.5,1023.5 C 1322.17,1023.5 1364.83,1023.5 1407.5,1023.5C 1407.5,1066.17 1407.5,1108.83 1407.5,1151.5C 1364.83,1151.5 1322.17,1151.5 1279.5,1151.5C 1279.5,1108.83 1279.5,1066.17 1279.5,1023.5 Z"/></g>
<g><path style="opacity:1" fill="#d2d3d2" d="M 1407.5,1023.5 C 1450.17,1023.5 1492.83,1023.5 1535.5,1023.5C 1535.5,1066.17 1535.5,1108.83 1535.5,1151.5C 1492.83,1151.5 1450.17,1151.5 1407.5,1151.5C 1407.5,1108.83 1407.5,1066.17 1407.5,1023.5 Z"/></g>
<g><path style="opacity:1" fill="#fefffe" d="M 1535.5,1023.5 C 1578.17,1023.5 1620.83,1023.5 1663.5,1023.5C 1663.5,1066.17 1663.5,1108.83 1663.5,1151.5C 1620.83,1151.5 1578.17,1151.5 1535.5,1151.5C 1535.5,1108.83 1535.5,1066.17 1535.5,1023.5 Z"/></g>
<g><path style="opacity:1" fill="#d2d3d2" d="M 1663.5,1023.5 C 1706.17,1023.5 1748.83,1023.5 1791.5,1023.5C 1791.5,1066.17 1791.5,1108.83 1791.5,1151.5C 1748.83,1151.5 1706.17,1151.5 1663.5,1151.5C 1663.5,1108.83 1663.5,1066.17 1663.5,1023.5 Z"/></g>
<g><path style="opacity:1" fill="#d2d3d2" d="M 767.5,1151.5 C 767.5,1194.17 767.5,1236.83 767.5,1279.5C 724.833,1279.5 682.167,1279.5 639.5,1279.5C 639.5,1236.83 639.5,1194.17 639.5,1151.5C 682.167,1151.5 724.833,1151.5 767.5,1151.5 Z"/></g>
<g><path style="opacity:1" fill="#fefffe" d="M 767.5,1151.5 C 810.167,1151.5 852.833,1151.5 895.5,1151.5C 895.5,1236.83 895.5,1322.17 895.5,1407.5C 852.833,1407.5 810.167,1407.5 767.5,1407.5C 767.5,1450.17 767.5,1492.83 767.5,1535.5C 724.833,1535.5 682.167,1535.5 639.5,1535.5C 639.5,1492.83 639.5,1450.17 639.5,1407.5C 639.5,1364.83 639.5,1322.17 639.5,1279.5C 682.167,1279.5 724.833,1279.5 767.5,1279.5C 767.5,1236.83 767.5,1194.17 767.5,1151.5 Z"/></g>
<g><path style="opacity:1" fill="#d2d3d2" d="M 895.5,1151.5 C 938.167,1151.5 980.833,1151.5 1023.5,1151.5C 1066.17,1151.5 1108.83,1151.5 1151.5,1151.5C 1151.5,1194.17 1151.5,1236.83 1151.5,1279.5C 1108.83,1279.5 1066.17,1279.5 1023.5,1279.5C 1023.5,1322.17 1023.5,1364.83 1023.5,1407.5C 980.833,1407.5 938.167,1407.5 895.5,1407.5C 895.5,1322.17 895.5,1236.83 895.5,1151.5 Z"/></g>
<g><path style="opacity:1" fill="#959695" d="M 1151.5,1151.5 C 1194.17,1151.5 1236.83,1151.5 1279.5,1151.5C 1279.5,1194.17 1279.5,1236.83 1279.5,1279.5C 1236.83,1279.5 1194.17,1279.5 1151.5,1279.5C 1151.5,1236.83 1151.5,1194.17 1151.5,1151.5 Z"/></g>
<g><path style="opacity:1" fill="#d2d3d2" d="M 1279.5,1151.5 C 1322.17,1151.5 1364.83,1151.5 1407.5,1151.5C 1407.5,1194.17 1407.5,1236.83 1407.5,1279.5C 1407.5,1322.17 1407.5,1364.83 1407.5,1407.5C 1364.83,1407.5 1322.17,1407.5 1279.5,1407.5C 1279.5,1364.83 1279.5,1322.17 1279.5,1279.5C 1279.5,1236.83 1279.5,1194.17 1279.5,1151.5 Z"/></g>
<g><path style="opacity:1" fill="#fefffe" d="M 1407.5,1151.5 C 1450.17,1151.5 1492.83,1151.5 1535.5,1151.5C 1535.5,1194.17 1535.5,1236.83 1535.5,1279.5C 1492.83,1279.5 1450.17,1279.5 1407.5,1279.5C 1407.5,1236.83 1407.5,1194.17 1407.5,1151.5 Z"/></g>
<g><path style="opacity:1" fill="#d2d3d2" d="M 1535.5,1151.5 C 1578.17,1151.5 1620.83,1151.5 1663.5,1151.5C 1663.5,1194.17 1663.5,1236.83 1663.5,1279.5C 1620.83,1279.5 1578.17,1279.5 1535.5,1279.5C 1535.5,1236.83 1535.5,1194.17 1535.5,1151.5 Z"/></g>
<g><path style="opacity:1" fill="#959695" d="M 1151.5,1279.5 C 1151.5,1322.17 1151.5,1364.83 1151.5,1407.5C 1108.83,1407.5 1066.17,1407.5 1023.5,1407.5C 1023.5,1364.83 1023.5,1322.17 1023.5,1279.5C 1066.17,1279.5 1108.83,1279.5 1151.5,1279.5 Z"/></g>
<g><path style="opacity:1" fill="#bdbebd" d="M 1151.5,1279.5 C 1194.17,1279.5 1236.83,1279.5 1279.5,1279.5C 1279.5,1322.17 1279.5,1364.83 1279.5,1407.5C 1236.83,1407.5 1194.17,1407.5 1151.5,1407.5C 1151.5,1364.83 1151.5,1322.17 1151.5,1279.5 Z"/></g>
<g><path style="opacity:1" fill="#d2d3d2" d="M 639.5,1407.5 C 639.5,1450.17 639.5,1492.83 639.5,1535.5C 596.833,1535.5 554.167,1535.5 511.5,1535.5C 468.833,1535.5 426.167,1535.5 383.5,1535.5C 383.5,1492.83 383.5,1450.17 383.5,1407.5C 468.833,1407.5 554.167,1407.5 639.5,1407.5 Z"/></g>
<g><path style="opacity:1" fill="#bdbebd" d="M 895.5,1407.5 C 895.5,1450.17 895.5,1492.83 895.5,1535.5C 852.833,1535.5 810.167,1535.5 767.5,1535.5C 767.5,1492.83 767.5,1450.17 767.5,1407.5C 810.167,1407.5 852.833,1407.5 895.5,1407.5 Z"/></g>
<g><path style="opacity:1" fill="#959695" d="M 895.5,1407.5 C 938.167,1407.5 980.833,1407.5 1023.5,1407.5C 1023.5,1450.17 1023.5,1492.83 1023.5,1535.5C 980.833,1535.5 938.167,1535.5 895.5,1535.5C 895.5,1492.83 895.5,1450.17 895.5,1407.5 Z"/></g>
<g><path style="opacity:1" fill="#fefffe" d="M 1023.5,1407.5 C 1066.17,1407.5 1108.83,1407.5 1151.5,1407.5C 1194.17,1407.5 1236.83,1407.5 1279.5,1407.5C 1322.17,1407.5 1364.83,1407.5 1407.5,1407.5C 1407.5,1450.17 1407.5,1492.83 1407.5,1535.5C 1364.83,1535.5 1322.17,1535.5 1279.5,1535.5C 1236.83,1535.5 1194.17,1535.5 1151.5,1535.5C 1151.5,1578.17 1151.5,1620.83 1151.5,1663.5C 1108.83,1663.5 1066.17,1663.5 1023.5,1663.5C 1023.5,1620.83 1023.5,1578.17 1023.5,1535.5C 1023.5,1492.83 1023.5,1450.17 1023.5,1407.5 Z"/></g>
<g><path style="opacity:1" fill="#d2d3d2" d="M 1407.5,1407.5 C 1450.17,1407.5 1492.83,1407.5 1535.5,1407.5C 1535.5,1450.17 1535.5,1492.83 1535.5,1535.5C 1492.83,1535.5 1450.17,1535.5 1407.5,1535.5C 1407.5,1492.83 1407.5,1450.17 1407.5,1407.5 Z"/></g>
<g><path style="opacity:1" fill="#4cff00" d="M 1727.5,1535.5 C 1727.5,1642.17 1727.5,1748.83 1727.5,1855.5C 1706.17,1855.5 1684.83,1855.5 1663.5,1855.5C 1663.5,1748.83 1663.5,1642.17 1663.5,1535.5C 1663.5,1514.17 1663.5,1492.83 1663.5,1471.5C 1684.83,1471.5 1706.17,1471.5 1727.5,1471.5C 1727.5,1492.83 1727.5,1514.17 1727.5,1535.5 Z"/></g>
<g><path style="opacity:1" fill="#bdbebd" d="M 511.5,1535.5 C 554.167,1535.5 596.833,1535.5 639.5,1535.5C 639.5,1578.17 639.5,1620.83 639.5,1663.5C 596.833,1663.5 554.167,1663.5 511.5,1663.5C 511.5,1620.83 511.5,1578.17 511.5,1535.5 Z"/></g>
<g><path style="opacity:1" fill="#959695" d="M 639.5,1535.5 C 682.167,1535.5 724.833,1535.5 767.5,1535.5C 810.167,1535.5 852.833,1535.5 895.5,1535.5C 895.5,1578.17 895.5,1620.83 895.5,1663.5C 852.833,1663.5 810.167,1663.5 767.5,1663.5C 724.833,1663.5 682.167,1663.5 639.5,1663.5C 639.5,1620.83 639.5,1578.17 639.5,1535.5 Z"/></g>
<g><path style="opacity:1" fill="#d2d3d2" d="M 895.5,1535.5 C 938.167,1535.5 980.833,1535.5 1023.5,1535.5C 1023.5,1578.17 1023.5,1620.83 1023.5,1663.5C 980.833,1663.5 938.167,1663.5 895.5,1663.5C 895.5,1620.83 895.5,1578.17 895.5,1535.5 Z"/></g>
<g><path style="opacity:1" fill="#d2d3d2" d="M 1279.5,1535.5 C 1279.5,1578.17 1279.5,1620.83 1279.5,1663.5C 1236.83,1663.5 1194.17,1663.5 1151.5,1663.5C 1151.5,1620.83 1151.5,1578.17 1151.5,1535.5C 1194.17,1535.5 1236.83,1535.5 1279.5,1535.5 Z"/></g>
<g><path style="opacity:1" fill="#fed800" d="M 1663.5,1535.5 C 1663.5,1642.17 1663.5,1748.83 1663.5,1855.5C 1663.5,1876.83 1663.5,1898.17 1663.5,1919.5C 1642.17,1919.5 1620.83,1919.5 1599.5,1919.5C 1599.5,1812.83 1599.5,1706.17 1599.5,1599.5C 1599.5,1578.17 1599.5,1556.83 1599.5,1535.5C 1620.83,1535.5 1642.17,1535.5 1663.5,1535.5 Z"/></g>
<g><path style="opacity:1" fill="#00fffe" d="M 1727.5,1535.5 C 1748.83,1535.5 1770.17,1535.5 1791.5,1535.5C 1791.5,1556.83 1791.5,1578.17 1791.5,1599.5C 1791.5,1706.17 1791.5,1812.83 1791.5,1919.5C 1770.17,1919.5 1748.83,1919.5 1727.5,1919.5C 1727.5,1898.17 1727.5,1876.83 1727.5,1855.5C 1727.5,1748.83 1727.5,1642.17 1727.5,1535.5 Z"/></g>
<g><path style="opacity:1" fill="#fe0000" d="M 1535.5,1599.5 C 1535.5,1642.17 1535.5,1684.83 1535.5,1727.5C 1514.17,1727.5 1492.83,1727.5 1471.5,1727.5C 1471.5,1684.83 1471.5,1642.17 1471.5,1599.5C 1492.83,1599.5 1514.17,1599.5 1535.5,1599.5 Z"/></g>
<g><path style="opacity:1" fill="#fe6a00" d="M 1535.5,1599.5 C 1556.83,1599.5 1578.17,1599.5 1599.5,1599.5C 1599.5,1706.17 1599.5,1812.83 1599.5,1919.5C 1578.17,1919.5 1556.83,1919.5 1535.5,1919.5C 1535.5,1855.5 1535.5,1791.5 1535.5,1727.5C 1535.5,1684.83 1535.5,1642.17 1535.5,1599.5 Z"/></g>
<g><path style="opacity:1" fill="#0025ff" d="M 1791.5,1599.5 C 1812.83,1599.5 1834.17,1599.5 1855.5,1599.5C 1855.5,1642.17 1855.5,1684.83 1855.5,1727.5C 1855.5,1791.5 1855.5,1855.5 1855.5,1919.5C 1834.17,1919.5 1812.83,1919.5 1791.5,1919.5C 1791.5,1812.83 1791.5,1706.17 1791.5,1599.5 Z"/></g>
<g><path style="opacity:1" fill="#b100ff" d="M 1855.5,1599.5 C 1876.83,1599.5 1898.17,1599.5 1919.5,1599.5C 1919.5,1642.17 1919.5,1684.83 1919.5,1727.5C 1898.17,1727.5 1876.83,1727.5 1855.5,1727.5C 1855.5,1684.83 1855.5,1642.17 1855.5,1599.5 Z"/></g>
<g><path style="opacity:1" fill="#959695" d="M 511.5,1663.5 C 554.167,1663.5 596.833,1663.5 639.5,1663.5C 639.5,1706.17 639.5,1748.83 639.5,1791.5C 511.5,1791.5 383.5,1791.5 255.5,1791.5C 255.5,1748.83 255.5,1706.17 255.5,1663.5C 340.833,1663.5 426.167,1663.5 511.5,1663.5 Z"/></g>
<g><path style="opacity:1" fill="#bdbebd" d="M 639.5,1663.5 C 682.167,1663.5 724.833,1663.5 767.5,1663.5C 767.5,1706.17 767.5,1748.83 767.5,1791.5C 810.167,1791.5 852.833,1791.5 895.5,1791.5C 895.5,1834.17 895.5,1876.83 895.5,1919.5C 810.167,1919.5 724.833,1919.5 639.5,1919.5C 639.5,1876.83 639.5,1834.17 639.5,1791.5C 639.5,1748.83 639.5,1706.17 639.5,1663.5 Z"/></g>
<g><path style="opacity:1" fill="#d2d3d2" d="M 767.5,1663.5 C 810.167,1663.5 852.833,1663.5 895.5,1663.5C 895.5,1706.17 895.5,1748.83 895.5,1791.5C 852.833,1791.5 810.167,1791.5 767.5,1791.5C 767.5,1748.83 767.5,1706.17 767.5,1663.5 Z"/></g>
<g><path style="opacity:1" fill="#fefffe" d="M 895.5,1663.5 C 938.167,1663.5 980.833,1663.5 1023.5,1663.5C 1023.5,1706.17 1023.5,1748.83 1023.5,1791.5C 980.833,1791.5 938.167,1791.5 895.5,1791.5C 895.5,1748.83 895.5,1706.17 895.5,1663.5 Z"/></g>
<g><path style="opacity:1" fill="#d2d3d2" d="M 1023.5,1663.5 C 1066.17,1663.5 1108.83,1663.5 1151.5,1663.5C 1151.5,1706.17 1151.5,1748.83 1151.5,1791.5C 1108.83,1791.5 1066.17,1791.5 1023.5,1791.5C 1023.5,1748.83 1023.5,1706.17 1023.5,1663.5 Z"/></g>
</svg>
